<svg xmlns="http://www.w3.org/2000/svg" width="768" height="64" viewBox="0 0 768 64">
  <defs>
    <style>
      .badge{fill:#071725;stroke:#35d9ef;stroke-width:2}.gold{fill:none;stroke:#ffd34f;stroke-width:3;stroke-linecap:round;stroke-linejoin:round}.cyan{fill:none;stroke:#55eaff;stroke-width:3;stroke-linecap:round;stroke-linejoin:round}.white{fill:#f4fbff}.spark{fill:#ffd34f}
    </style>
  </defs>
  <g transform="translate(0)"><circle class="badge" cx="32" cy="32" r="28"/><path class="cyan" d="M13 43h38M17 37c8-8 22-8 30 0"/><path class="gold" d="M23 32a9 9 0 0 1 18 0M32 12v6M16 19l5 5M48 19l-5 5"/><circle class="spark" cx="32" cy="32" r="5"/></g>
  <g transform="translate(64)"><circle class="badge" cx="32" cy="32" r="28"/><circle class="cyan" cx="32" cy="32" r="15"/><path class="cyan" d="M32 8v10M32 46v10M8 32h10M46 32h10"/><path class="gold" d="M27 27l10 10M37 27L27 37"/><circle class="spark" cx="22" cy="21" r="2.5"/><circle class="spark" cx="43" cy="42" r="2.5"/></g>
  <g transform="translate(128)"><circle class="badge" cx="32" cy="32" r="28"/><path class="gold" d="M17 39l15 9 15-9-15-9-15 9zm0-9l15 9 15-9-15-9-15 9zm8-12l7-7 7 7"/><circle class="white" cx="32" cy="18" r="3"/></g>
  <g transform="translate(192)"><circle class="badge" cx="32" cy="32" r="28"/><path class="cyan" d="M14 36l9-9c3-3 8-3 11 0l3 3M50 28l-9 9c-3 3-8 3-11 0l-3-3"/><path class="gold" d="M24 40l16-16"/><circle class="spark" cx="18" cy="22" r="2.5"/><circle class="spark" cx="46" cy="42" r="2.5"/></g>
  <g transform="translate(256)"><circle class="badge" cx="32" cy="32" r="28"/><path class="cyan" d="M32 11l17 7v12c0 12-7 19-17 23-10-4-17-11-17-23V18l17-7z"/><path class="gold" d="M23 32l6 6 13-15"/><path class="cyan" d="M12 47c11 8 29 8 40 0"/></g>
  <g transform="translate(320)"><circle class="badge" cx="32" cy="32" r="28"/><circle class="gold" cx="32" cy="32" r="11"/><circle class="spark" cx="32" cy="32" r="6"/><path class="gold" d="M32 8v8M32 48v8M8 32h8M48 32h8M15 15l6 6M43 43l6 6M49 15l-6 6M21 43l-6 6"/></g>
  <g transform="translate(384)"><circle class="badge" cx="32" cy="32" r="28"/><path class="cyan" d="M47 15c-16 2-25 20-15 32-11-4-17-16-12-26 5-10 17-14 27-6z"/><path class="gold" d="M43 31l2 5 5 2-5 2-2 5-2-5-5-2 5-2 2-5z"/><circle class="white" cx="21" cy="46" r="2"/></g>
  <g transform="translate(448)"><circle class="badge" cx="32" cy="32" r="28"/><path class="gold" d="M32 11c6 8 10 13 10 20a10 10 0 0 1-20 0c0-5 3-9 7-14 0 7 2 10 5 12 2-6 0-11-2-18z"/><path class="cyan" d="M15 49L49 15"/><path class="white" d="M12 45l7 7 33-33-7-7z" opacity=".12"/></g>
  <g transform="translate(512)"><circle class="badge" cx="32" cy="32" r="28"/><path class="gold" d="M15 22l9 6 8-14 8 14 9-6-4 22H19l-4-22z"/><path class="cyan" d="M19 49h26M23 35h18"/><path class="gold" d="M12 12l5 2-5 2-2 5-2-5-5-2 5-2 2-5 2 5z"/></g>
  <g transform="translate(576)"><circle class="badge" cx="32" cy="32" r="28"/><rect class="cyan" x="15" y="17" width="34" height="32" rx="5"/><path class="gold" d="M15 27h34M23 12v10M41 12v10"/><circle class="spark" cx="32" cy="38" r="6"/><path class="gold" d="M32 30v16M24 38h16" opacity=".65"/></g>
  <g transform="translate(640)"><circle class="badge" cx="32" cy="32" r="28"/><path class="cyan" d="M14 22l18-7 18 7-18 7-18-7zm4 10l14 6 14-6M18 41l14 7 14-7"/><path class="gold" d="M32 29v19M50 22v14"/><circle class="spark" cx="50" cy="40" r="3"/></g>
  <g transform="translate(704)"><circle class="badge" cx="32" cy="32" r="28"/><path class="cyan" d="M10 32c6-14 16-14 22 0s16 14 22 0c-6-14-16-14-22 0S16 46 10 32z"/><circle class="spark" cx="32" cy="32" r="4"/><path class="gold" d="M32 10v8M32 46v8"/></g>
</svg>
